<?xml version="1.0" encoding="utf-8"?>
<!-- Generator: Adobe Illustrator 23.0.0, SVG Export Plug-In . SVG Version: 6.00 Build 0)  -->
<svg version="1.1" id="Слой_1" xmlns="http://www.w3.org/2000/svg" xmlns:xlink="http://www.w3.org/1999/xlink" x="0px" y="0px"
	 viewBox="0 0 32 32" style="enable-background:new 0 0 32 32;" xml:space="preserve">
<style type="text/css">
	.st0{fill:#EA7C8A;}
</style>
<path class="st0" d="M15.6,8.4H1.7c-0.9,0-1.6-0.7-1.6-1.6V5c0-0.9,0.7-1.6,1.6-1.6l13.9,0c0.9,0,1.6,0.7,1.6,1.6v1.9
	C17.2,7.7,16.4,8.4,15.6,8.4z"/>
<path class="st0" d="M23.1,18.6H1.7c-0.9,0-1.6-0.7-1.6-1.6v-1.9c0-0.9,0.7-1.6,1.6-1.6h21.4c0.9,0,1.6,0.7,1.6,1.6V17
	C24.6,17.9,23.9,18.6,23.1,18.6z"/>
<path class="st0" d="M30.4,28.4H1.7c-0.9,0-1.6-0.7-1.6-1.6v-1.9c0-0.9,0.7-1.6,1.6-1.6h28.8c0.9,0,1.6,0.7,1.6,1.6v1.9
	C32,27.7,31.3,28.4,30.4,28.4z"/>
</svg>
