<?xml version="1.0" encoding="utf-8"?>
<!-- Generator: Adobe Illustrator 23.0.0, SVG Export Plug-In . SVG Version: 6.00 Build 0)  -->
<svg version="1.1" id="Layer_1" xmlns="http://www.w3.org/2000/svg" xmlns:xlink="http://www.w3.org/1999/xlink" x="0px" y="0px"
	 viewBox="0 0 1024.1 659.7" style="enable-background:new 0 0 1024.1 659.7;" xml:space="preserve">
<style type="text/css">
	.st0{fill:#EA7C8A;}
	.st1{fill:#383141;}
</style>
<path class="st0" d="M1012.7,1.6C937.6,5,917.5-2.9,866.5,41c-100.3,86.5,63.7,283.4-51.6,336.5c-139.4,64.3-262-124.6-335.5-176.4
	c-126.8-89.5-102-23.8-209.7,23.8c-65.5,28.9-101.2,66.5-164.7,35.5c-162.3-79.2-27.2-272,29.2-259.4
	C185.9,12.7,1012.7,1.6,1012.7,1.6z"/>
<path class="st1" d="M17.6,0c59.2,25.5,86.1,40.8,110.4,103.5C176,227.1-61.4,323.7,15.4,424.8c92.9,122.3,289.7,11.7,379.1,2
	c219.4-23.7,68.1,272.3,302.6,228.4c382.7-71.7-166.4-226.6-18.6-465.9C783.8,18.8,1024.1-0.3,1024.1-0.3L17.6,0z"/>
</svg>
