<?xml version="1.0" encoding="utf-8"?>
<!-- Generator: Adobe Illustrator 23.0.0, SVG Export Plug-In . SVG Version: 6.00 Build 0)  -->
<svg version="1.1" id="Layer_1" xmlns="http://www.w3.org/2000/svg" xmlns:xlink="http://www.w3.org/1999/xlink" x="0px" y="0px"
	 viewBox="0 0 1899.1 659.7" style="enable-background:new 0 0 1899.1 659.7;" xml:space="preserve">
<style type="text/css">
	.st0{fill:#EA7C8A;}
	.st1{fill:#383141;}
</style>
<path class="st0" d="M1887.7,1.6c-75,3.5-95.2-4.4-146.2,39.5c-100.3,86.5,63.7,283.4-51.6,336.5c-139.4,64.3-262-124.6-335.5-176.4
	c-126.8-89.5-102-23.8-209.7,23.8c-65.5,28.9-101.2,66.5-164.7,35.5c-162.3-79.2-27.2-272,29.2-259.4
	C1060.9,12.7,1887.7,1.6,1887.7,1.6z"/>
<path class="st1" d="M892.6,0c59.2,25.5,86.1,40.8,110.4,103.5c47.9,123.5-189.4,220.2-112.6,321.3c92.9,122.3,289.7,11.7,379.1,2
	c219.4-23.7,68.1,272.3,302.6,228.4c382.7-71.7-166.4-226.6-18.6-465.9C1658.8,18.8,1899.1-0.3,1899.1-0.3L892.6,0z"/>
</svg>
