<?xml version="1.0" encoding="utf-8"?>
<!-- Generator: Adobe Illustrator 23.0.0, SVG Export Plug-In . SVG Version: 6.00 Build 0)  -->
<svg version="1.1" id="Layer_1" xmlns="http://www.w3.org/2000/svg" xmlns:xlink="http://www.w3.org/1999/xlink" x="0px" y="0px"
	 viewBox="0 0 250.1 48.9" style="enable-background:new 0 0 250.1 48.9;" xml:space="preserve">
<style type="text/css">
	.st0{fill:#EA7C8A;}
	.st1{fill:#383141;}
</style>
<path class="st0" d="M17.7,35.8v11.9c0,0.7-0.5,1.2-1.2,1.2h-4.3c-0.7,0-1.2-0.5-1.2-1.2V35.8c0-0.7,0.5-1.2,1.2-1.2h4.3
	C17.2,34.6,17.7,35.1,17.7,35.8z M5.6,42.1H1.2c-0.7,0-1.2,0.5-1.2,1.2v4.3c0,0.7,0.5,1.2,1.2,1.2h4.3c0.7,0,1.2-0.5,1.2-1.2v-4.3
	C6.8,42.7,6.2,42.1,5.6,42.1z M49.6,13.7L26.3,0.3C26,0.1,25.6,0,25.3,0c-0.3,0-0.7,0.1-1,0.3L1,13.7c-0.6,0.4-1,1-1,1.8v5.1l0,0
	v4.9c0,0.7,0.5,1.2,1.2,1.2h4.3c0.7,0,1.2-0.5,1.2-1.2v-3.8l0,0v-3.4L25.3,7.5l18.5,10.7V27v15.1H28.7V31.4c0-0.7-0.5-1.2-1.2-1.2
	h-1.7h-2.6h-1.7c-0.7,0-1.2,0.5-1.2,1.2v1.9c0,0.7,0.5,1.2,1.2,1.2H22v13.2c0,0.6,0.5,1.1,1.1,1.2l0,0h0.1l0,0h4.3l0,0h21.1
	c1.1,0,2-0.9,2-2V27V15.5C50.6,14.7,50.2,14.1,49.6,13.7z M27.5,26.6c0.7,0,1.2-0.5,1.2-1.2v-4.3c0-0.7-0.5-1.2-1.2-1.2h-4.3
	c-0.7,0-1.2,0.5-1.2,1.2v4.3c0,0.7,0.5,1.2,1.2,1.2C23.2,26.6,27.5,26.6,27.5,26.6z"/>
<path class="st1" d="M63.9,27.9h-2.5c-0.1-0.3-0.1-0.7-0.2-1c0-0.4-0.1-0.7-0.1-1c0-0.7,0.1-1.3,0.2-1.9H69v18.9
	c-0.9,0.1-1.7,0.2-2.6,0.2c-0.8,0-1.6-0.1-2.5-0.2V27.9z M63.2,20.7C63,19.9,63,19.1,63,18.3c0-0.8,0.1-1.6,0.2-2.5
	c0.4-0.1,0.9-0.1,1.3-0.2c0.5,0,0.9-0.1,1.3-0.1c0.4,0,0.9,0,1.4,0.1c0.5,0,0.9,0.1,1.4,0.2c0.1,0.4,0.1,0.8,0.1,1.2
	c0,0.4,0,0.8,0,1.2c0,0.4,0,0.8,0,1.2c0,0.4-0.1,0.8-0.1,1.2c-0.4,0.1-0.9,0.1-1.3,0.1c-0.5,0-0.9,0-1.3,0c-0.4,0-0.8,0-1.3,0
	C64,20.9,63.6,20.8,63.2,20.7z M74.1,23.9c0.3-0.1,0.7-0.1,1-0.2s0.7-0.1,1.1-0.1c0.4,0,0.8,0,1.1,0.1c0.3,0,0.6,0.1,1,0.2
	c0.1,0.1,0.1,0.3,0.2,0.5c0.1,0.2,0.1,0.5,0.2,0.7c0,0.3,0.1,0.5,0.1,0.8c0,0.2,0.1,0.5,0.1,0.6c0.2-0.4,0.5-0.7,0.8-1.1
	c0.3-0.4,0.7-0.7,1.1-1c0.4-0.3,0.9-0.5,1.5-0.7s1.2-0.3,1.8-0.3c3,0,4.8,1.1,5.7,3.4c0.5-0.9,1.2-1.7,2.1-2.4c0.9-0.7,2-1,3.4-1
	c2.1,0,3.7,0.6,4.7,1.8c1,1.2,1.5,3,1.5,5.5v12c-0.9,0.1-1.7,0.2-2.6,0.2c-0.9,0-1.7-0.1-2.6-0.2V32.2c0-1.3-0.2-2.3-0.5-3
	c-0.3-0.7-1-1.1-2-1.1c-0.4,0-0.8,0.1-1.2,0.2c-0.4,0.1-0.8,0.3-1.1,0.7s-0.6,0.8-0.8,1.4c-0.2,0.6-0.3,1.4-0.3,2.3v10.2
	c-0.9,0.1-1.7,0.2-2.6,0.2c-0.9,0-1.7-0.1-2.6-0.2V32.2c0-1.3-0.2-2.3-0.5-3c-0.3-0.7-1-1.1-2-1.1c-0.4,0-0.8,0.1-1.2,0.2
	c-0.4,0.1-0.8,0.4-1.1,0.7c-0.3,0.4-0.6,0.8-0.8,1.5c-0.2,0.6-0.3,1.5-0.3,2.5v9.9c-0.9,0.1-1.7,0.2-2.6,0.2c-0.9,0-1.7-0.1-2.6-0.2
	V23.9z M106.3,23.9c0.3-0.1,0.7-0.1,1-0.2s0.7-0.1,1.1-0.1c0.4,0,0.8,0,1.1,0.1c0.3,0,0.6,0.1,1,0.2c0.1,0.1,0.1,0.3,0.2,0.5
	c0.1,0.2,0.1,0.5,0.2,0.7c0,0.3,0.1,0.5,0.1,0.8c0,0.2,0.1,0.5,0.1,0.6c0.2-0.4,0.5-0.7,0.8-1.1c0.3-0.4,0.7-0.7,1.1-1
	c0.4-0.3,0.9-0.5,1.5-0.7s1.2-0.3,1.8-0.3c3,0,4.8,1.1,5.7,3.4c0.5-0.9,1.2-1.7,2.1-2.4c0.9-0.7,2-1,3.4-1c2.1,0,3.7,0.6,4.7,1.8
	c1,1.2,1.5,3,1.5,5.5v12c-0.9,0.1-1.7,0.2-2.6,0.2c-0.9,0-1.7-0.1-2.6-0.2V32.2c0-1.3-0.2-2.3-0.5-3c-0.3-0.7-1-1.1-2-1.1
	c-0.4,0-0.8,0.1-1.2,0.2c-0.4,0.1-0.8,0.3-1.1,0.7s-0.6,0.8-0.8,1.4c-0.2,0.6-0.3,1.4-0.3,2.3v10.2c-0.9,0.1-1.7,0.2-2.6,0.2
	c-0.9,0-1.7-0.1-2.6-0.2V32.2c0-1.3-0.2-2.3-0.5-3c-0.3-0.7-1-1.1-2-1.1c-0.4,0-0.8,0.1-1.2,0.2c-0.4,0.1-0.8,0.4-1.1,0.7
	c-0.3,0.4-0.6,0.8-0.8,1.5c-0.2,0.6-0.3,1.5-0.3,2.5v9.9c-0.9,0.1-1.7,0.2-2.6,0.2c-0.9,0-1.7-0.1-2.6-0.2V23.9z M146.5,43.3
	c-1.5,0-2.9-0.3-4-0.8c-1.1-0.5-2.1-1.2-2.8-2.1c-0.7-0.9-1.3-1.9-1.7-3.1c-0.4-1.2-0.6-2.5-0.6-3.9c0-1.4,0.2-2.7,0.6-3.9
	c0.4-1.2,0.9-2.3,1.7-3.2c0.7-0.9,1.7-1.6,2.8-2.1c1.1-0.5,2.5-0.8,4-0.8c1.5,0,2.9,0.3,4,0.8c1.1,0.5,2.1,1.2,2.9,2.1
	c0.8,0.9,1.3,1.9,1.7,3.2c0.4,1.2,0.5,2.5,0.5,3.9c0,1.4-0.2,2.7-0.5,3.9c-0.4,1.2-0.9,2.2-1.7,3.1c-0.8,0.9-1.7,1.6-2.9,2.1
	C149.4,43,148,43.3,146.5,43.3z M146.5,39.3c1.4,0,2.3-0.5,2.9-1.5c0.6-1,0.9-2.5,0.9-4.4s-0.3-3.4-0.9-4.4c-0.6-1-1.6-1.5-2.9-1.5
	c-1.3,0-2.3,0.5-2.9,1.5c-0.6,1-0.9,2.5-0.9,4.4s0.3,3.4,0.9,4.4C144.2,38.8,145.2,39.3,146.5,39.3z M164.5,30.6
	c-0.8-0.3-1.6-0.7-2.2-1s-1.2-0.8-1.7-1.4c-0.5-0.5-0.8-1.2-1.1-1.9c-0.3-0.7-0.4-1.6-0.4-2.6c0-1.2,0.2-2.3,0.6-3.3
	c0.4-1,1-1.8,1.8-2.4c0.8-0.6,1.7-1.1,2.8-1.5c1.1-0.3,2.3-0.5,3.7-0.5c1.2,0,2.4,0.1,3.5,0.3c1.1,0.2,2.2,0.5,3.4,1
	c-0.1,1.4-0.5,2.8-1.2,4.2c-0.4-0.1-0.7-0.3-1.1-0.4s-0.8-0.3-1.2-0.4c-0.4-0.1-0.9-0.2-1.4-0.2c-0.5-0.1-1.1-0.1-1.8-0.1
	c-0.4,0-0.8,0-1.3,0.1c-0.4,0.1-0.8,0.2-1.2,0.4c-0.3,0.2-0.6,0.5-0.8,0.9c-0.2,0.4-0.3,0.9-0.3,1.5c0,0.5,0.1,0.9,0.3,1.2
	c0.2,0.3,0.4,0.6,0.7,0.8c0.3,0.2,0.6,0.4,1,0.6c0.4,0.2,0.7,0.3,1.1,0.5l2.2,0.8c0.9,0.4,1.8,0.7,2.5,1.1c0.8,0.4,1.4,0.9,1.9,1.4
	c0.5,0.6,0.9,1.3,1.2,2.1c0.3,0.8,0.4,1.8,0.4,3c0,1.2-0.2,2.4-0.7,3.4c-0.5,1-1.1,1.9-2,2.6c-0.9,0.7-1.9,1.3-3.2,1.7
	c-1.3,0.4-2.7,0.6-4.3,0.6c-0.8,0-1.5,0-2.2-0.1c-0.6,0-1.2-0.1-1.8-0.2c-0.6-0.1-1.1-0.3-1.7-0.4c-0.6-0.2-1.1-0.4-1.8-0.6
	c0.1-0.7,0.2-1.4,0.4-2.2c0.2-0.8,0.4-1.5,0.7-2.3c1,0.4,2,0.7,2.9,0.9c0.9,0.2,1.9,0.3,2.9,0.3c1.5,0,2.7-0.3,3.6-0.9
	c0.9-0.6,1.3-1.4,1.3-2.6c0-0.6-0.1-1.1-0.3-1.5c-0.2-0.4-0.5-0.7-0.8-1c-0.3-0.3-0.7-0.5-1.1-0.7c-0.4-0.2-0.8-0.4-1.3-0.5
	L164.5,30.6z M192.5,38.4c0.3,0.5,0.5,1.1,0.7,1.7c0.2,0.6,0.3,1.4,0.3,2.3c-1,0.4-1.9,0.6-2.7,0.7c-0.9,0.1-1.7,0.2-2.7,0.2
	c-1.6,0-3-0.3-4.1-0.8c-1.2-0.5-2.1-1.2-2.9-2.1c-0.8-0.9-1.3-1.9-1.7-3.1c-0.4-1.2-0.6-2.5-0.6-3.9c0-1.4,0.2-2.7,0.6-3.9
	c0.4-1.2,1-2.2,1.7-3.1s1.7-1.6,2.9-2.1c1.1-0.5,2.5-0.8,4-0.8c0.5,0,1,0,1.5,0c0.5,0,0.9,0.1,1.3,0.1c0.4,0.1,0.8,0.2,1.2,0.3
	c0.4,0.1,0.9,0.3,1.4,0.5c0,0.6-0.1,1.2-0.2,1.9c-0.1,0.7-0.4,1.4-0.7,2c-0.7-0.2-1.4-0.4-1.9-0.5c-0.5-0.1-1.2-0.1-1.9-0.1
	c-1.5,0-2.7,0.5-3.4,1.5c-0.8,1-1.2,2.4-1.2,4.2c0,2,0.4,3.4,1.2,4.3c0.8,0.9,2,1.4,3.4,1.4c0.4,0,0.7,0,1,0c0.3,0,0.6,0,0.9-0.1
	c0.3,0,0.6-0.1,0.9-0.2C191.8,38.6,192.1,38.5,192.5,38.4z M204.7,43.3c-1.5,0-2.9-0.3-4-0.8c-1.1-0.5-2.1-1.2-2.8-2.1
	c-0.7-0.9-1.3-1.9-1.7-3.1c-0.4-1.2-0.6-2.5-0.6-3.9c0-1.4,0.2-2.7,0.6-3.9c0.4-1.2,0.9-2.3,1.7-3.2c0.7-0.9,1.7-1.6,2.8-2.1
	c1.1-0.5,2.5-0.8,4-0.8s2.9,0.3,4,0.8c1.1,0.5,2.1,1.2,2.9,2.1c0.8,0.9,1.3,1.9,1.7,3.2c0.4,1.2,0.5,2.5,0.5,3.9
	c0,1.4-0.2,2.7-0.5,3.9c-0.4,1.2-0.9,2.2-1.7,3.1c-0.8,0.9-1.7,1.6-2.9,2.1C207.6,43,206.2,43.3,204.7,43.3z M204.7,39.3
	c1.4,0,2.3-0.5,2.9-1.5c0.6-1,0.9-2.5,0.9-4.4s-0.3-3.4-0.9-4.4c-0.6-1-1.6-1.5-2.9-1.5c-1.3,0-2.3,0.5-2.9,1.5
	c-0.6,1-0.9,2.5-0.9,4.4s0.3,3.4,0.9,4.4C202.4,38.8,203.3,39.3,204.7,39.3z M217.9,23.9c0.4-0.1,0.7-0.1,1-0.2
	c0.3,0,0.7-0.1,1.1-0.1c0.4,0,0.7,0,1.1,0.1c0.4,0,0.7,0.1,1,0.2c0.1,0.1,0.1,0.3,0.2,0.5c0.1,0.2,0.1,0.5,0.2,0.7
	c0,0.3,0.1,0.5,0.1,0.8c0,0.3,0.1,0.5,0.1,0.6c0.5-0.8,1.2-1.4,2-2s1.8-0.9,2.9-0.9c0.2,0,0.5,0,0.8,0c0.3,0,0.5,0.1,0.7,0.1
	c0,0.2,0.1,0.5,0.1,0.8c0,0.3,0,0.6,0,1c0,0.4,0,0.9-0.1,1.4c0,0.5-0.1,1-0.2,1.4c-0.3,0-0.6-0.1-0.9-0.1c-0.3,0-0.5,0-0.6,0
	c-0.4,0-0.9,0-1.4,0.1c-0.5,0.1-1,0.3-1.5,0.7c-0.5,0.4-0.8,0.9-1.2,1.6c-0.3,0.7-0.5,1.8-0.5,3.1v9c-0.4,0.1-0.9,0.1-1.3,0.1
	c-0.4,0-0.9,0-1.3,0c-0.4,0-0.8,0-1.3,0c-0.4,0-0.9-0.1-1.3-0.1V23.9z M236.2,35c0.1,1.5,0.6,2.5,1.5,3.2s2.1,1,3.7,1
	c0.8,0,1.7-0.1,2.5-0.2c0.9-0.2,1.7-0.4,2.5-0.7c0.3,0.5,0.5,1.1,0.7,1.8c0.2,0.7,0.3,1.4,0.3,2.2c-1.9,0.7-4,1.1-6.4,1.1
	c-1.8,0-3.3-0.2-4.5-0.7c-1.3-0.5-2.3-1.2-3.1-2c-0.8-0.9-1.4-1.9-1.8-3.1c-0.4-1.2-0.6-2.5-0.6-3.9c0-1.4,0.2-2.7,0.6-3.9
	c0.4-1.2,1-2.3,1.7-3.2c0.8-0.9,1.7-1.6,2.9-2.1c1.1-0.5,2.5-0.8,4-0.8c1.3,0,2.5,0.2,3.5,0.7c1,0.5,1.9,1.1,2.6,1.9
	c0.7,0.8,1.3,1.8,1.6,2.9c0.4,1.1,0.5,2.3,0.5,3.6c0,0.5,0,0.9-0.1,1.4c0,0.5-0.1,0.8-0.1,1.1H236.2z M243.6,31.3
	c0-1.2-0.4-2.1-1-2.8c-0.6-0.7-1.4-1.1-2.5-1.1c-1.2,0-2.1,0.3-2.8,1c-0.6,0.7-1,1.6-1.1,2.9H243.6z"/>
</svg>
